<svg xmlns="http://www.w3.org/2000/svg" enable-background="new 0 0 64 64" viewBox="0 0 64 64" id="geology">
  <path d="M32,1C14.907,1,1,14.906,1,32s13.907,31,31,31c17.094,0,31-13.906,31-31S49.094,1,32,1z M44.464,16.28l3.354,4.025
		c0.491,0.589,0.587,1.414,0.244,2.1l-1.851,3.7c-0.065,0.131-0.116,0.268-0.151,0.409l-1.256,5.022
		C44.589,32.398,43.818,33,42.931,33C41.866,33,41,32.134,41,31.069V28c0-0.718-0.385-1.381-1.008-1.736l-5.019-2.868
		C34.373,23.053,34,22.41,34,21.719V17V5.073c4.341,0.319,8.399,1.67,11.932,3.807l-1.829,5.487
		C43.884,15.024,44.021,15.748,44.464,16.28z M30,40.768c-4.002-0.913-7-4.494-7-8.768s2.998-7.855,7-8.768V40.768z M30,17v2.17
		C23.78,20.137,19,25.514,19,32s4.78,11.863,11,12.83v5.052C21.013,48.883,14,41.248,14,32s7.013-16.883,16-17.882V17z M5,32
		C5,17.786,16.044,6.11,30,5.082v5.013C18.803,11.109,10,20.544,10,32s8.803,20.891,20,21.905v5.013C16.044,57.89,5,46.214,5,32z
		 M34,45h5.034c0.604,0,1.183,0.289,1.545,0.772l1.82,2.428C42.777,48.703,43.37,49,44,49h2.167c0.832,0,1.568,0.53,1.831,1.32
		l0.906,2.716C44.76,56.372,39.617,58.514,34,58.927V45z M52.106,49.993l-0.313-0.937C50.985,46.63,48.725,45,46.167,45H45
		l-1.222-1.629C42.663,41.887,40.89,41,39.034,41H34V27.446l3,1.715v1.908C37,34.34,39.66,37,42.931,37
		c2.727,0,5.093-1.848,5.754-4.492l1.202-4.81l1.753-3.505c1.053-2.107,0.759-4.639-0.749-6.448l-2.641-3.17l1.084-3.253
		C55.237,16.279,59,23.706,59,32C59,38.908,56.388,45.213,52.106,49.993z"></path>
</svg>
