<svg xmlns="http://www.w3.org/2000/svg" fill-rule="evenodd" stroke-linejoin="round" stroke-miterlimit="2" clip-rule="evenodd" viewBox="0 0 48 48" id="map">
  <g transform="translate(-240 -144)">
    <path fill="#9ccc66" d="M282,162C282,160.939 281.579,159.922 280.828,159.172C280.078,158.421 279.061,158 278,158C269.633,158 250.367,158 242,158C240.939,158 239.922,158.421 239.172,159.172C238.421,159.922 238,160.939 238,162C238,168.148 238,179.852 238,186C238,187.061 238.421,188.078 239.172,188.828C239.922,189.579 240.939,190 242,190C250.367,190 269.633,190 278,190C279.061,190 280.078,189.579 280.828,188.828C281.579,188.078 282,187.061 282,186C282,179.852 282,168.148 282,162Z" transform="translate(4)"></path>
    <path fill="#ee534f" d="M276,146C271.585,146 268,149.585 268,154C268,156.534 269.093,158.967 270.467,160.952C272.377,163.713 274.769,165.576 274.769,165.576C275.492,166.141 276.508,166.141 277.231,165.576C277.231,165.576 279.623,163.713 281.533,160.952C282.907,158.967 284,156.534 284,154C284,149.585 280.415,146 276,146Z" transform="translate(-6)"></path>
    <circle cx="278" cy="154" r="4" fill="#e0e0e0" transform="translate(-8)"></circle>
    <path fill="#ffc928" d="M266,176C267.105,176 268,176.895 268,178L268,190L272,190L272,178C272,176.895 272.895,176 274,176L286,176L286,172L256,172C254.895,172 254,171.105 254,170C254,166.131 254,158 254,158L250,158L250,170C250,171.105 249.105,172 248,172C245.63,172 242,172 242,172L242,176L266,176Z"></path>
    <path fill="#f5f5f5" d="M286,176L274,176C272.895,176 272,176.895 272,178L272,190L282,190C284.209,190 286,188.209 286,186L286,176Z"></path>
    <path fill="#25c6da" d="M250,158L246,158C243.791,158 242,159.791 242,162C242,166.138 242,172 242,172L248,172C249.105,172 250,171.105 250,170C250,166.131 250,158 250,158Z"></path>
    <path d="M276,145C271.033,145 267,149.033 267,154C267,156.738 268.16,159.376 269.645,161.521C271.63,164.39 274.112,166.332 274.153,166.364C275.239,167.212 276.761,167.212 277.847,166.364C277.888,166.332 280.37,164.39 282.355,161.521C283.84,159.376 285,156.738 285,154C285,149.033 280.967,145 276,145ZM276,147C279.863,147 283,150.137 283,154C283,156.329 281.973,158.558 280.71,160.384C278.892,163.012 276.617,164.787 276.617,164.787C276.617,164.787 276.616,164.788 276.616,164.788C276.254,165.071 275.746,165.071 275.384,164.788C275.384,164.788 275.383,164.787 275.383,164.787C275.383,164.787 273.108,163.012 271.29,160.384C270.027,158.558 269,156.329 269,154C269,150.137 272.137,147 276,147Z" transform="translate(-6)"></path>
    <path d="M278,149C275.24,149 273,151.24 273,154C273,156.76 275.24,159 278,159C280.76,159 283,156.76 283,154C283,151.24 280.76,149 278,149ZM278,151C279.656,151 281,152.344 281,154C281,155.656 279.656,157 278,157C276.344,157 275,155.656 275,154C275,152.344 276.344,151 278,151Z" transform="translate(-8)"></path>
    <path d="M258.613,157L246,157C244.674,157 243.402,157.527 242.464,158.464C241.527,159.402 241,160.674 241,162C241,168.148 241,179.852 241,186C241,187.326 241.527,188.598 242.464,189.536C243.402,190.473 244.674,191 246,191L282,191C283.326,191 284.598,190.473 285.536,189.536C286.473,188.598 287,187.326 287,186C287,179.852 287,168.148 287,162C287,160.674 286.473,159.402 285.536,158.464C284.598,157.527 283.326,157 282,157C282,157 281.387,157 281.387,157C280.835,157 280.387,157.448 280.387,158C280.387,158.552 280.835,159 281.387,159L282,159C282.796,159 283.559,159.316 284.121,159.879C284.684,160.441 285,161.204 285,162L285,171L256,171C255.448,171 255,170.552 255,170L255,159L258.613,159C259.165,159 259.613,158.552 259.613,158C259.613,157.448 259.165,157 258.613,157ZM285,177L274,177C273.448,177 273,177.448 273,178L273,189L282,189C282.796,189 283.559,188.684 284.121,188.121C284.684,187.559 285,186.796 285,186L285,177ZM253,159C253,159 253,170 253,170C253,171.657 254.343,173 256,173L285,173L285,175C285,175 274,175 274,175C272.343,175 271,176.343 271,178L271,189L269,189C269,189 269,178 269,178C269,176.343 267.657,175 266,175L243,175C243,175 243,173 243,173C243,173 248,173 248,173C249.657,173 251,171.657 251,170L251,159L253,159ZM243,177L243,186C243,186.796 243.316,187.559 243.879,188.121C244.441,188.684 245.204,189 246,189L267,189L267,178C267,177.448 266.552,177 266,177L243,177ZM249,159L246,159C245.204,159 244.441,159.316 243.879,159.879C243.316,160.441 243,161.204 243,162L243,171L248,171C248.552,171 249,170.552 249,170L249,159Z"></path>
  </g>
</svg>
